<svg xmlns="http://www.w3.org/2000/svg" viewBox="-2.394989013671875 172.6464796142578 579.7900067138672 230.40135550985534"> <svg version="1.1" id="Layer_1" xmlns="http://www.w3.org/2000/svg" xmlns:xlink="http://www.w3.org/1999/xlink" x="67.60501098632812" y="242.6464796142578" viewBox="34.424720764160156 55.132789611816406 526.3941650390625 486.8171691894531" xml:space="preserve" height="90.4013555098553" width="97" preserveAspectRatio="xMinYMin" enable-background="new 0 0 595.3 595.3" style="overflow: visible;"><path class="st0" d="M557.5,187.2c-1.9-1.8-4.4-2.7-7-2.7c-6.6-1.3-25.7-5-44.5-8.7c-7.2-1.4-14.4-2.8-20.8-4.1  c8.1-7,15-15.4,20-25.7c13.1-26.9-0.4-60.9-25.1-75.9c-31.3-19.5-70.7-18-103.6-6.6c-31,10.7-56.9,33.9-71.8,62.7  c-2.3-0.8-4.6-1.2-7.1-1.2c-2.6,0-5.1,0.5-7.5,1.4c-4.6-8.9-10.2-17.4-16.8-25.1c-29.6-34.8-77.9-51.7-123.6-44.3  c-42.5,5.8-79,45-60.1,89c4.8,10,11.6,18.3,19.5,25.2c-22.6,4.6-55.1,11.2-64.3,13.1c-0.1,0-0.2,0-0.4,0c-2.1,0.1-4.1,0.8-5.7,1.9  c-3.6,2.3-4.9,6.7-4,10.6c0.1,4.4,1.6,65.4,1.6,65.4c0,3.7,2.5,7.2,6.3,8.1c0,0,11.8,2.8,13.1,3.1C55,307.3,50.6,469,50.6,469  c-0.2,4.5,3,8.7,7.6,9.7l235.9,62.8c2.2,0.6,4.7,0.6,7.1,0l236.6-62.8c4.4-1,7.8-5,7.6-9.7c0,0-5.7-184.5-6-195.6  c1.3-0.3,13.1-3.1,13.1-3.1c3.5-0.8,6.1-4.1,6.1-7.8l1.8-64.8C561.5,194,560.4,189.8,557.5,187.2z M291.3,206.6c2.1,0.6,4.2,1,6.4,1  c2.2,0,4.3-0.4,6.4-1l73.5,18.3c-35.2,8.2-77.8,18.2-79.9,18.7c-2.1-0.5-44.7-10.4-79.9-18.7L291.3,206.6z M181.1,289.8  c0-0.2,0.1-0.5,0.1-0.7v-47.9l106.5,28.2v48.5L181.1,289.8z M307.6,269.4c16.2-4.3,60.2-15.9,106.5-28.2v47.9c0,0.2,0.1,0.5,0.1,0.7  c-44.9,11.7-88.2,23.1-106.5,28.2V269.4z M161.3,284.6l-108-28.5c0.2-8.3,0.8-33.6,1.2-48.5l106.8,28.3V284.6z M287.7,328.1v181.4  c-10.5-2.3-49.1-11-97.8-21.8V305.1C237.5,316.3,281.1,326.5,287.7,328.1z M307.6,328.1c6.6-1.6,50.6-11.9,98.9-23.3v182.7l-98.9,22  V328.1z M434.1,235.9c43.7-11.5,86.3-22.8,106.8-28.3l1.4,48.7c-16.2,4.3-61.2,16-108.2,28.2V235.9z M512.2,193.5  c-22.4,5.2-46.1,10.8-92.1,21.5l-35.2-8.8c10.7-0.6,21.4-2,31.8-4.3c18.7-4.1,38.7-10.3,55.6-20.7  C482.2,184.3,493,187.6,512.2,193.5z M382.6,84.3c29.4-6.7,78.3-0.8,90.1,30.3c7.4,21.9-20,41.7-36.2,53.3  c-33,22.6-75.3,29.5-114.4,21.8c3.3-6.6,5.2-14.7,5.2-23.4c0-14.3-5.3-27-13.3-34.3C330.1,108.2,354.6,90.3,382.6,84.3z   M122.2,114.6c11.8-31.1,60.6-37.1,90.1-30.3c28.1,6,52.7,24.1,68.8,48c-7.8,7.4-13,19.9-13,34.1c0,8.7,1.9,16.7,5.2,23.4  c0,0-0.1,0-0.1,0c-39.1,7.6-81.7,0.8-114.7-21.9C142.3,156.4,114.8,136.5,122.2,114.6z M178.2,201.9c10.6,2.3,21.3,3.7,32.2,4.3  l-35.1,8.8c-45.7-10.7-68.9-16.1-91.4-21.4c19.4-5.7,31-9.2,39.8-11.8C140.3,191.9,159.8,197.9,178.2,201.9z M169.9,300.4v182.8  c-49.3-11-93.6-20.9-99.6-22.2l-5-185.1C82.3,279.8,117.6,288.1,169.9,300.4z M525.7,461L426.5,483V300  c52.4-12.4,88.9-21,104.9-24.8C531,289.1,526.1,446.7,525.7,461z" style="fill: #06114F; fill-opacity: 1;"></path></svg> <svg y="259.36300762939453" viewBox="4.809999942779541 5.510000228881836 325.7900085449219 50.62999725341797" x="181.60500915527345" height="50.62999725341797" width="325.7900085449219" style="overflow: visible;"><g fill="#06114F" fill-opacity="1" style=""><path d="M19.84 39.96L13.22 46.86L12.70 36.02L32.13 15.54L42.57 15.54L25.06 34.39L19.84 39.96ZM14.15 56.14L4.81 56.14L4.81 15.54L14.15 15.54L14.15 56.14ZM43.56 56.14L32.60 56.14L18.15 38.45L24.30 31.78L43.56 56.14ZM50.23 56.14L40.60 56.14L58.70 15.54L67.98 15.54L86.13 56.14L76.27 56.14L61.42 20.30L65.13 20.30L50.23 56.14ZM75.57 47.44L49.65 47.44L52.14 40.31L73.02 40.31L75.57 47.44ZM74.07 10.61L52.61 10.61L52.61 5.51L74.07 5.51L74.07 10.61ZM136.53 56.14L106.78 56.14L106.78 15.54L116.17 15.54L116.17 48.49L136.53 48.49L136.53 56.14ZM146.33 56.14L136.71 56.14L154.80 15.54L164.08 15.54L182.24 56.14L172.38 56.14L157.53 20.30L161.24 20.30L146.33 56.14ZM171.68 47.44L145.75 47.44L148.25 40.31L169.13 40.31L171.68 47.44ZM195.87 56.14L186.47 56.14L186.47 15.54L195.87 15.54L195.87 56.14ZM214.31 56.14L205.49 56.14L205.49 15.54L213.27 15.54L230.55 44.20L226.43 44.20L243.43 15.54L251.14 15.54L251.26 56.14L242.44 56.14L242.38 29.06L244.01 29.06L230.43 51.85L226.20 51.85L212.34 29.06L214.31 29.06L214.31 56.14ZM269.53 39.21L269.53 31.90L289.07 31.90L289.07 39.21L269.53 39.21ZM270.22 23.08L270.22 48.60L292.32 48.60L292.32 56.14L260.88 56.14L260.88 15.54L291.57 15.54L291.57 23.08L270.22 23.08ZM286.98 10.61L265.52 10.61L265.52 5.51L286.98 5.51L286.98 10.61ZM317.61 56.14L308.21 56.14L308.21 23.20L295.22 23.20L295.22 15.54L330.60 15.54L330.60 23.20L317.61 23.20L317.61 56.14Z" transform="translate(0, 0)"></path></g></svg></svg>